# FreeCAD v0.20 build2 Arch module
# http://www.freecadweb.org
mtllib ver2.mtl
o Body
usemtl color_cccccc
v 120.0 0.0 60.0
v 0.0 0.0 0.0
v 0.0 0.0 60.0
v 120.0 0.0 0.0
v 0.0 -75.0 0.0
v 0.0 -75.0 60.0
v 120.0 -75.0 0.0
v 120.0 -75.0 60.0
v 2.0 -73.0 0.0
v 2.0 -2.0 0.0
v 118.0 -73.0 0.0
v 118.0 -2.0 0.0
v 13.43115 -18.864759 60.0
v 13.43115 -58.948719 60.0
v 109.990807 -58.948719 60.0
v 109.990807 -18.864759 60.0
v 118.0 -73.0 54.0
v 2.0 -73.0 54.0
v 118.0 -2.0 54.0
v 2.0 -2.0 54.0
v 109.990807 -58.948719 54.0
v 109.990807 -18.864759 54.0
v 13.43115 -18.864759 54.0
v 13.43115 -58.948719 54.0
vn 0.0 1.0 0.0
vn 0.0 1.0 -0.0
vn -1.0 0.0 0.0
vn -1.0 0.0 0.0
vn 1.0 0.0 0.0
vn 1.0 0.0 0.0
vn 0.0 0.0 -1.0
vn 0.0 0.0 -1.0
vn -0.0 -0.0 -1.0
vn 0.0 -0.0 -1.0
vn 0.0 0.0 -1.0
vn 0.0 0.0 -1.0
vn 0.0 0.0 -1.0
vn 0.0 0.0 -1.0
vn 0.0 0.0 1.0
vn 0.0 0.0 1.0
vn 0.0 0.0 1.0
vn 0.0 0.0 1.0
vn 0.0 0.0 1.0
vn 0.0 0.0 1.0
vn 0.0 0.0 1.0
vn 0.0 0.0 1.0
vn 0.0 -1.0 0.0
vn 0.0 -1.0 0.0
vn 0.0 1.0 0.0
vn 0.0 1.0 -0.0
vn -1.0 0.0 0.0
vn -1.0 0.0 0.0
vn 0.0 -1.0 0.0
vn 0.0 -1.0 0.0
vn 1.0 0.0 0.0
vn 1.0 0.0 0.0
vn -1.0 -0.0 0.0
vn -1.0 0.0 0.0
vn 0.0 -1.0 0.0
vn 0.0 -1.0 0.0
vn 1.0 -0.0 0.0
vn 1.0 0.0 0.0
vn 0.0 1.0 0.0
vn 0.0 1.0 -0.0
vn 0.0 0.0 -1.0
vn 0.0 0.0 -1.0
vn 0.0 -0.0 -1.0
vn 0.0 0.0 -1.0
vn 0.0 0.0 -1.0
vn 0.0 0.0 -1.0
vn 0.0 0.0 -1.0
vn 0.0 0.0 -1.0
f 1//1 2//1 3//1 
f 4//2 2//2 1//2 
f 2//3 5//3 6//3 
f 2//4 6//4 3//4 
f 7//5 4//5 1//5 
f 7//6 1//6 8//6 
f 9//7 2//7 10//7 
f 5//8 2//8 9//8 
f 11//9 7//9 9//9 
f 9//10 7//10 5//10 
f 12//11 4//11 11//11 
f 11//12 4//12 7//12 
f 2//13 4//13 10//13 
f 10//14 4//14 12//14 
f 13//15 6//15 14//15 
f 3//16 6//16 13//16 
f 8//17 14//17 6//17 
f 15//18 14//18 8//18 
f 16//19 15//19 8//19 
f 1//20 13//20 16//20 
f 1//21 3//21 13//21 
f 1//22 16//22 8//22 
f 6//23 7//23 8//23 
f 5//24 7//24 6//24 
f 17//25 9//25 18//25 
f 11//26 9//26 17//26 
f 12//27 11//27 17//27 
f 12//28 17//28 19//28 
f 20//29 12//29 19//29 
f 10//30 12//30 20//30 
f 9//31 10//31 20//31 
f 9//32 20//32 18//32 
f 16//33 21//33 15//33 
f 22//34 21//34 16//34 
f 13//35 22//35 16//35 
f 23//36 22//36 13//36 
f 14//37 23//37 13//37 
f 24//38 23//38 14//38 
f 21//39 24//39 14//39 
f 21//40 14//40 15//40 
f 18//41 23//41 24//41 
f 18//42 20//42 23//42 
f 24//43 17//43 18//43 
f 24//44 21//44 17//44 
f 21//45 22//45 17//45 
f 23//46 19//46 22//46 
f 20//47 19//47 23//47 
f 22//48 19//48 17//48 
